<mxfile host="app.diagrams.net" modified="2020-12-30T16:24:35.724Z" agent="5.0 (Windows NT 10.0; Win64; x64) AppleWebKit/537.36 (KHTML, like Gecko) Chrome/87.0.4280.88 Safari/537.36" etag="y0aJ40OzMp7htcCKg0yG" version="14.1.4" type="github">
  <diagram name="Page-1" id="822b0af5-4adb-64df-f703-e8dfc1f81529">
    <mxGraphModel dx="2076" dy="2796" grid="1" gridSize="10" guides="1" tooltips="1" connect="1" arrows="1" fold="1" page="1" pageScale="1" pageWidth="1100" pageHeight="850" background="#ffffff" math="0" shadow="0">
      <root>
        <mxCell id="0" />
        <mxCell id="1" parent="0" />
        <mxCell id="y6YgBeKMQ5G8F_49D-vM-25" value="" style="ellipse;shape=doubleEllipse;whiteSpace=wrap;html=1;" vertex="1" parent="1">
          <mxGeometry x="330" y="-970" width="390" height="240" as="geometry" />
        </mxCell>
        <mxCell id="y6YgBeKMQ5G8F_49D-vM-1" value="" style="verticalLabelPosition=bottom;aspect=fixed;html=1;verticalAlign=top;strokeColor=none;align=center;outlineConnect=0;shape=mxgraph.citrix.database;" vertex="1" parent="1">
          <mxGeometry x="370" y="80" width="85" height="100" as="geometry" />
        </mxCell>
        <mxCell id="y6YgBeKMQ5G8F_49D-vM-2" value="" style="verticalLabelPosition=bottom;aspect=fixed;html=1;verticalAlign=top;strokeColor=none;align=center;outlineConnect=0;shape=mxgraph.citrix.database;" vertex="1" parent="1">
          <mxGeometry x="590" y="80" width="85" height="100" as="geometry" />
        </mxCell>
        <mxCell id="y6YgBeKMQ5G8F_49D-vM-3" value="&lt;font style=&quot;font-size: 36px&quot;&gt;DB1&lt;/font&gt;" style="text;html=1;strokeColor=none;fillColor=none;align=center;verticalAlign=middle;whiteSpace=wrap;rounded=0;" vertex="1" parent="1">
          <mxGeometry x="350" y="-10" width="140" height="90" as="geometry" />
        </mxCell>
        <mxCell id="y6YgBeKMQ5G8F_49D-vM-4" value="&lt;font style=&quot;font-size: 36px&quot;&gt;DB2&lt;/font&gt;" style="text;html=1;strokeColor=none;fillColor=none;align=center;verticalAlign=middle;whiteSpace=wrap;rounded=0;" vertex="1" parent="1">
          <mxGeometry x="570" y="-10" width="140" height="90" as="geometry" />
        </mxCell>
        <mxCell id="y6YgBeKMQ5G8F_49D-vM-7" value="" style="verticalLabelPosition=bottom;aspect=fixed;html=1;verticalAlign=top;strokeColor=none;align=center;outlineConnect=0;shape=mxgraph.citrix.users;" vertex="1" parent="1">
          <mxGeometry x="401.86" y="-950" width="246.27" height="210" as="geometry" />
        </mxCell>
        <mxCell id="y6YgBeKMQ5G8F_49D-vM-8" value="" style="verticalLabelPosition=bottom;aspect=fixed;html=1;verticalAlign=top;strokeColor=none;align=center;outlineConnect=0;shape=mxgraph.citrix.proxy_server;" vertex="1" parent="1">
          <mxGeometry x="130" y="-640" width="76.5" height="90" as="geometry" />
        </mxCell>
        <mxCell id="y6YgBeKMQ5G8F_49D-vM-13" value="" style="verticalLabelPosition=bottom;aspect=fixed;html=1;verticalAlign=top;strokeColor=none;align=center;outlineConnect=0;shape=mxgraph.citrix.cache_server;" vertex="1" parent="1">
          <mxGeometry x="810" y="-300" width="71" height="97.5" as="geometry" />
        </mxCell>
        <mxCell id="y6YgBeKMQ5G8F_49D-vM-14" value="" style="verticalLabelPosition=bottom;aspect=fixed;html=1;verticalAlign=top;strokeColor=none;align=center;outlineConnect=0;shape=mxgraph.citrix.web_server;" vertex="1" parent="1">
          <mxGeometry x="70" y="-320" width="76.5" height="90" as="geometry" />
        </mxCell>
        <mxCell id="y6YgBeKMQ5G8F_49D-vM-15" value="" style="verticalLabelPosition=bottom;aspect=fixed;html=1;verticalAlign=top;strokeColor=none;align=center;outlineConnect=0;shape=mxgraph.citrix.web_server;" vertex="1" parent="1">
          <mxGeometry x="300" y="-320" width="76.5" height="90" as="geometry" />
        </mxCell>
        <mxCell id="y6YgBeKMQ5G8F_49D-vM-16" value="" style="verticalLabelPosition=bottom;aspect=fixed;html=1;verticalAlign=top;strokeColor=none;align=center;outlineConnect=0;shape=mxgraph.citrix.web_server;" vertex="1" parent="1">
          <mxGeometry x="180" y="-320" width="76.5" height="90" as="geometry" />
        </mxCell>
        <mxCell id="y6YgBeKMQ5G8F_49D-vM-21" value="" style="edgeStyle=elbowEdgeStyle;elbow=vertical;endArrow=classic;html=1;" edge="1" parent="1" source="y6YgBeKMQ5G8F_49D-vM-29" target="y6YgBeKMQ5G8F_49D-vM-8">
          <mxGeometry width="50" height="50" relative="1" as="geometry">
            <mxPoint x="70" y="-490" as="sourcePoint" />
            <mxPoint x="120" y="-540" as="targetPoint" />
            <Array as="points" />
          </mxGeometry>
        </mxCell>
        <mxCell id="y6YgBeKMQ5G8F_49D-vM-22" value="" style="edgeStyle=elbowEdgeStyle;elbow=vertical;endArrow=classic;html=1;" edge="1" parent="1" source="y6YgBeKMQ5G8F_49D-vM-29" target="y6YgBeKMQ5G8F_49D-vM-8">
          <mxGeometry width="50" height="50" relative="1" as="geometry">
            <mxPoint x="108.25" y="-450" as="sourcePoint" />
            <mxPoint x="218.25" y="-510" as="targetPoint" />
            <Array as="points" />
          </mxGeometry>
        </mxCell>
        <mxCell id="y6YgBeKMQ5G8F_49D-vM-26" value="" style="edgeStyle=elbowEdgeStyle;elbow=vertical;endArrow=classic;html=1;" edge="1" parent="1" source="y6YgBeKMQ5G8F_49D-vM-28" target="y6YgBeKMQ5G8F_49D-vM-25">
          <mxGeometry width="50" height="50" relative="1" as="geometry">
            <mxPoint x="470" y="-500" as="sourcePoint" />
            <mxPoint x="520" y="-550" as="targetPoint" />
          </mxGeometry>
        </mxCell>
        <mxCell id="y6YgBeKMQ5G8F_49D-vM-27" value="" style="edgeStyle=elbowEdgeStyle;elbow=vertical;endArrow=classic;html=1;entryX=0.042;entryY=0.73;entryDx=0;entryDy=0;entryPerimeter=0;" edge="1" parent="1" source="y6YgBeKMQ5G8F_49D-vM-8" target="y6YgBeKMQ5G8F_49D-vM-25">
          <mxGeometry width="50" height="50" relative="1" as="geometry">
            <mxPoint x="140" y="-710" as="sourcePoint" />
            <mxPoint x="190" y="-760" as="targetPoint" />
          </mxGeometry>
        </mxCell>
        <mxCell id="y6YgBeKMQ5G8F_49D-vM-28" value="" style="verticalLabelPosition=bottom;aspect=fixed;html=1;verticalAlign=top;strokeColor=none;align=center;outlineConnect=0;shape=mxgraph.citrix.desktop_web;" vertex="1" parent="1">
          <mxGeometry x="300" y="-460" width="76.5" height="90" as="geometry" />
        </mxCell>
        <mxCell id="y6YgBeKMQ5G8F_49D-vM-30" value="" style="edgeStyle=elbowEdgeStyle;elbow=vertical;endArrow=classic;html=1;" edge="1" parent="1" source="y6YgBeKMQ5G8F_49D-vM-31" target="y6YgBeKMQ5G8F_49D-vM-8">
          <mxGeometry width="50" height="50" relative="1" as="geometry">
            <mxPoint x="228.25" y="-260" as="sourcePoint" />
            <mxPoint x="168.25" y="-550" as="targetPoint" />
            <Array as="points" />
          </mxGeometry>
        </mxCell>
        <mxCell id="y6YgBeKMQ5G8F_49D-vM-31" value="" style="verticalLabelPosition=bottom;aspect=fixed;html=1;verticalAlign=top;strokeColor=none;align=center;outlineConnect=0;shape=mxgraph.citrix.desktop_web;" vertex="1" parent="1">
          <mxGeometry x="176.5" y="-460" width="76.5" height="90" as="geometry" />
        </mxCell>
        <mxCell id="y6YgBeKMQ5G8F_49D-vM-29" value="" style="verticalLabelPosition=bottom;aspect=fixed;html=1;verticalAlign=top;strokeColor=none;align=center;outlineConnect=0;shape=mxgraph.citrix.desktop_web;" vertex="1" parent="1">
          <mxGeometry x="70" y="-460" width="76.5" height="90" as="geometry" />
        </mxCell>
        <mxCell id="y6YgBeKMQ5G8F_49D-vM-32" value="" style="edgeStyle=elbowEdgeStyle;elbow=vertical;endArrow=classic;html=1;" edge="1" parent="1" source="y6YgBeKMQ5G8F_49D-vM-14" target="y6YgBeKMQ5G8F_49D-vM-29">
          <mxGeometry width="50" height="50" relative="1" as="geometry">
            <mxPoint x="78.25" y="-350" as="sourcePoint" />
            <mxPoint x="168.25" y="-550" as="targetPoint" />
            <Array as="points" />
          </mxGeometry>
        </mxCell>
        <mxCell id="y6YgBeKMQ5G8F_49D-vM-33" value="" style="edgeStyle=elbowEdgeStyle;elbow=vertical;endArrow=classic;html=1;" edge="1" parent="1" source="y6YgBeKMQ5G8F_49D-vM-15" target="y6YgBeKMQ5G8F_49D-vM-28">
          <mxGeometry width="50" height="50" relative="1" as="geometry">
            <mxPoint x="560" y="-390" as="sourcePoint" />
            <mxPoint x="610" y="-440" as="targetPoint" />
          </mxGeometry>
        </mxCell>
        <mxCell id="y6YgBeKMQ5G8F_49D-vM-34" value="" style="edgeStyle=elbowEdgeStyle;elbow=horizontal;endArrow=classic;html=1;" edge="1" parent="1" source="y6YgBeKMQ5G8F_49D-vM-16" target="y6YgBeKMQ5G8F_49D-vM-31">
          <mxGeometry width="50" height="50" relative="1" as="geometry">
            <mxPoint x="900" y="-600" as="sourcePoint" />
            <mxPoint x="950" y="-650" as="targetPoint" />
          </mxGeometry>
        </mxCell>
      </root>
    </mxGraphModel>
  </diagram>
</mxfile>
